<mxfile host="app.diagrams.net" modified="2023-01-09T08:18:56.616Z" agent="5.0 (Macintosh; Intel Mac OS X 10_15_7) AppleWebKit/537.36 (KHTML, like Gecko) Chrome/108.0.0.0 Safari/537.36" version="20.7.4" etag="qD2OamRg4lCPB0hXCh1e" type="github">
  <diagram id="jcCv9dP4JJxYe9Y4-dI9" name="第 1 页">
    <mxGraphModel dx="1434" dy="796" grid="1" gridSize="10" guides="1" tooltips="1" connect="1" arrows="1" fold="1" page="1" pageScale="1" pageWidth="827" pageHeight="1169" math="0" shadow="0">
      <root>
        <mxCell id="0" />
        <mxCell id="1" parent="0" />
        <mxCell id="CNDm6-HDIN6dF04JR1Rr-3" value="" style="edgeStyle=orthogonalEdgeStyle;rounded=0;orthogonalLoop=1;jettySize=auto;html=1;" edge="1" parent="1" source="CNDm6-HDIN6dF04JR1Rr-1" target="CNDm6-HDIN6dF04JR1Rr-2">
          <mxGeometry relative="1" as="geometry" />
        </mxCell>
        <mxCell id="CNDm6-HDIN6dF04JR1Rr-1" value="DP Request" style="rounded=1;whiteSpace=wrap;html=1;" vertex="1" parent="1">
          <mxGeometry x="230" y="100" width="230" height="50" as="geometry" />
        </mxCell>
        <mxCell id="CNDm6-HDIN6dF04JR1Rr-5" value="" style="edgeStyle=orthogonalEdgeStyle;rounded=0;orthogonalLoop=1;jettySize=auto;html=1;" edge="1" parent="1" source="CNDm6-HDIN6dF04JR1Rr-2" target="CNDm6-HDIN6dF04JR1Rr-4">
          <mxGeometry relative="1" as="geometry" />
        </mxCell>
        <mxCell id="CNDm6-HDIN6dF04JR1Rr-7" value="" style="edgeStyle=orthogonalEdgeStyle;rounded=0;orthogonalLoop=1;jettySize=auto;html=1;" edge="1" parent="1" source="CNDm6-HDIN6dF04JR1Rr-2" target="CNDm6-HDIN6dF04JR1Rr-6">
          <mxGeometry relative="1" as="geometry" />
        </mxCell>
        <mxCell id="CNDm6-HDIN6dF04JR1Rr-2" value="if new activate" style="rhombus;whiteSpace=wrap;html=1;rounded=1;" vertex="1" parent="1">
          <mxGeometry x="260" y="210" width="170" height="60" as="geometry" />
        </mxCell>
        <mxCell id="CNDm6-HDIN6dF04JR1Rr-4" value="if new activate" style="rhombus;whiteSpace=wrap;html=1;rounded=1;" vertex="1" parent="1">
          <mxGeometry x="260" y="320" width="170" height="60" as="geometry" />
        </mxCell>
        <mxCell id="CNDm6-HDIN6dF04JR1Rr-6" value="" style="whiteSpace=wrap;html=1;rounded=1;" vertex="1" parent="1">
          <mxGeometry x="540" y="217.5" width="100" height="45" as="geometry" />
        </mxCell>
      </root>
    </mxGraphModel>
  </diagram>
</mxfile>
